<?xml version="1.0" encoding="utf-8"?>
<svg xmlns="http://www.w3.org/2000/svg" viewBox="0 0 30 30" fill="#000000"><path d="M 15 2 A 1 1 0 0 0 14.322266 2.2675781 A 1 1 0 0 0 14.318359 2.2695312 L 3.7480469 8.0332031 A 1 1 0 0 0 3.3242188 8.2636719 L 3.3183594 8.2675781 L 3.3183594 8.2695312 A 1 1 0 0 0 3 9 A 1 1 0 0 0 4 10 L 4 24 C 4 25.105 4.895 26 6 26 L 24 26 C 25.105 26 26 25.105 26 24 L 26 10 A 1 1 0 0 0 27 9 A 1 1 0 0 0 26.681641 8.2695312 A 1 1 0 0 0 26.681641 8.2675781 L 26.677734 8.265625 A 1 1 0 0 0 26.251953 8.0332031 L 15.681641 2.2695312 L 15.677734 2.2675781 A 1 1 0 0 0 15 2 z M 14 8.5 L 16 8.5 L 16 10.091797 C 17.775 10.404797 18.971344 11.567297 19.027344 13.154297 L 16.96875 13.154297 C 16.86675 12.327297 16.098063 11.777344 15.039062 11.777344 C 13.944062 11.777344 13.220703 12.285031 13.220703 13.082031 C 13.220703 13.727031 13.719312 14.096422 14.945312 14.357422 L 16.207031 14.626953 C 18.310031 15.068953 19.216797 15.975609 19.216797 17.599609 C 19.215797 19.417609 18.011 20.620875 16 20.921875 L 16 22.5 L 14 22.5 L 14 20.927734 C 12.068 20.644734 10.852203 19.506219 10.783203 17.824219 L 12.900391 17.824219 C 13.002391 18.672219 13.856844 19.216797 15.089844 19.216797 C 16.227844 19.216797 17.033203 18.665 17.033203 17.875 C 17.033203 17.208 16.510563 16.824828 15.226562 16.548828 L 13.863281 16.257812 C 11.956281 15.858812 11.021484 14.866484 11.021484 13.271484 C 11.021484 11.596484 12.175 10.415703 14 10.095703 L 14 8.5 z" fill="#000000"/></svg>
