<?xml version="1.0" encoding="utf-8"?>
<svg xmlns="http://www.w3.org/2000/svg" viewBox="0 0 30 30" fill="#000000"><path d="M 14.992188 3.9824219 C 14.955187 3.9834219 14.917859 3.9861875 14.880859 3.9921875 L 9.0117188 3.9921875 C 8.4597188 3.9841875 8.0050469 4.4265156 7.9980469 4.9785156 C 7.9910469 5.5305156 8.432375 5.9841875 8.984375 5.9921875 L 9.0117188 5.9921875 L 12.597656 5.9921875 L 4.8046875 13.785156 C 4.4066875 14.168156 4.3933906 14.801219 4.7753906 15.199219 C 5.1573906 15.597219 5.7914531 15.611516 6.1894531 15.228516 L 6.21875 15.199219 L 14.011719 7.40625 L 14.011719 10.992188 C 14.003719 11.544187 14.446047 11.999813 14.998047 12.007812 C 15.550047 12.015812 16.003719 11.573484 16.011719 11.021484 L 16.011719 10.992188 L 16.011719 5.1191406 C 16.087719 4.5721406 15.705203 4.0681875 15.158203 3.9921875 C 15.103203 3.9841875 15.048188 3.9814219 14.992188 3.9824219 z M 20.011719 3.9921875 C 19.661719 3.9921875 19.342109 4.1728906 19.162109 4.4628906 C 18.982109 4.7628906 18.961094 5.1333594 19.121094 5.4433594 L 19.892578 6.9921875 L 19.121094 8.5429688 C 18.961094 8.8529688 18.982109 9.2234375 19.162109 9.5234375 C 19.342109 9.8134375 19.661719 9.9921875 20.011719 9.9921875 L 24.011719 9.9921875 L 24.011719 26.992188 L 26.011719 26.992188 L 26.011719 4.9921875 C 26.011719 4.4421875 25.561719 3.9921875 25.011719 3.9921875 L 20.011719 3.9921875 z M 21.632812 5.9921875 L 24.011719 5.9921875 L 24.011719 7.9921875 L 21.632812 7.9921875 L 21.902344 7.4433594 C 22.052344 7.1633594 22.052344 6.8229688 21.902344 6.5429688 L 21.632812 5.9921875 z M 20.011719 11.992188 C 19.459719 11.992188 19.011719 12.440188 19.011719 12.992188 L 19.011719 26.992188 L 21.011719 26.992188 L 21.011719 12.992188 C 21.011719 12.440188 20.563719 11.992188 20.011719 11.992188 z M 15.011719 13.992188 C 14.459719 13.992188 14.011719 14.440188 14.011719 14.992188 L 14.011719 26.992188 L 16.011719 26.992188 L 16.011719 14.992188 C 16.011719 14.440188 15.563719 13.992188 15.011719 13.992188 z M 10.011719 16.992188 C 9.4597188 16.992188 9.0117188 17.440188 9.0117188 17.992188 L 9.0117188 26.992188 L 11.011719 26.992188 L 11.011719 17.992188 C 11.011719 17.440188 10.563719 16.992188 10.011719 16.992188 z M 5.0117188 19.992188 C 4.4597188 19.992188 4.0117188 20.440188 4.0117188 20.992188 L 4.0117188 26.992188 L 6.0117188 26.992188 L 6.0117188 20.992188 C 6.0117188 20.440188 5.5637187 19.992188 5.0117188 19.992188 z" fill="#000000"/></svg>
