<?xml version="1.0" encoding="utf-8"?>
<svg xmlns="http://www.w3.org/2000/svg" viewBox="0 0 30 30" fill="#000000"><path d="M 6 3 C 6 3 8.8690687 4.7351716 11.943359 7.6425781 L 3.2929688 16.292969 A 1.0001 1.0001 0 1 0 4.7070312 17.707031 L 13.357422 9.0566406 C 16.264828 12.130931 18 15 18 15 C 18 15 17.995115 10.666707 15.169922 7.2441406 L 15.707031 6.7070312 A 1.0001 1.0001 0 0 0 14.980469 4.9902344 A 1.0001 1.0001 0 0 0 14.292969 5.2929688 L 13.755859 5.8300781 C 10.333293 3.0048854 6 3 6 3 z M 22 13 C 21.744 13 21.487969 13.097469 21.292969 13.292969 L 18.292969 16.292969 C 18.104969 16.479969 18 16.735 18 17 L 18 26 L 19 26 C 19.552 26 20 25.552 20 25 L 20 17.585938 L 22 15.585938 L 22 25 C 22 25.552 22.448 26 23 26 L 26 26 L 26 17 C 26 16.735 25.895031 16.479969 25.707031 16.292969 L 22.707031 13.292969 C 22.512031 13.097469 22.256 13 22 13 z M 9.9785156 17.978516 C 9.4265156 17.978516 8.9785156 18.426516 8.9785156 18.978516 L 8.9785156 23.222656 C 8.9785156 23.487656 9.0834844 23.742687 9.2714844 23.929688 L 11.34375 26 L 16 26 L 16 25 L 11 20 L 13 20 L 16 23 L 16 19.34375 L 14.929688 18.271484 C 14.741687 18.083484 14.487656 17.978516 14.222656 17.978516 L 9.9785156 17.978516 z" fill="#000000"/></svg>
