<?xml version="1.0" encoding="utf-8"?>
<svg xmlns="http://www.w3.org/2000/svg" viewBox="0 0 30 30" fill="#000000"><path d="M 15 1 C 14.115084 1 13.328373 1.3906671 12.779297 2 L 10.001953 2 C 9.2949531 2 8.8092656 2.7150937 9.0722656 3.3710938 L 10 6 L 20 6 L 20.927734 3.3710938 C 21.190734 2.7150937 20.705047 2 19.998047 2 L 17.220703 2 C 16.671627 1.3906671 15.884916 1 15 1 z M 10 8 C 10 8 3 14 3 21 C 3 25 6 27 8 27 L 15 27 L 22 27 C 24 27 27 25 27 21 C 27 14 20 8 20 8 L 10 8 z M 14 11.5 L 16 11.5 L 16 13.115234 C 17.35 13.417234 18.252875 14.337078 18.296875 15.580078 L 16.611328 15.580078 C 16.528328 14.904078 15.899203 14.453125 15.033203 14.453125 C 14.137203 14.453125 13.544922 14.868484 13.544922 15.521484 C 13.544922 16.049484 13.952078 16.353406 14.955078 16.566406 L 15.988281 16.785156 C 17.709281 17.147156 18.449219 17.89075 18.449219 19.21875 C 18.449219 20.64875 17.532 21.607438 16 21.898438 L 16 23.5 L 14 23.5 L 14 21.902344 C 12.529 21.626344 11.604781 20.723344 11.550781 19.402344 L 13.28125 19.402344 C 13.36425 20.096344 14.065219 20.541016 15.074219 20.541016 C 16.005219 20.541016 16.664063 20.090359 16.664062 19.443359 C 16.664062 18.897359 16.2375 18.583422 15.1875 18.357422 L 14.072266 18.119141 C 12.512266 17.793141 11.746094 16.980781 11.746094 15.675781 C 11.746094 14.362781 12.615 13.427141 14 13.119141 L 14 11.5 z" fill="#000000"/></svg>
