<?xml version="1.0" encoding="utf-8"?>
<svg xmlns="http://www.w3.org/2000/svg" viewBox="0 0 30 30" fill="#000000"><path d="M 5 3 A 1.0001 1.0001 0 1 0 5 5 L 25 5 A 1.0001 1.0001 0 1 0 25 3 L 5 3 z M 4 7 A 2 2 0 0 0 3.5976562 7.0410156 A 2 2 0 0 0 3.2226562 7.1582031 A 2 2 0 0 0 3.2207031 7.1582031 A 2 2 0 0 0 2.8886719 7.3378906 C 2.8859723 7.3397021 2.8835496 7.3419257 2.8808594 7.34375 A 2 2 0 0 0 2.5996094 7.5761719 C 2.59367 7.5820134 2.5859447 7.5858822 2.5800781 7.5917969 A 2 2 0 0 0 2.3496094 7.8730469 C 2.3459298 7.8784167 2.341519 7.8832646 2.3378906 7.8886719 A 2 2 0 0 0 2.1679688 8.2050781 C 2.1633947 8.2155766 2.1586949 8.2257373 2.1542969 8.2363281 A 2 2 0 0 0 2.0488281 8.5761719 C 2.0459609 8.5893675 2.0416671 8.6019438 2.0390625 8.6152344 A 2 2 0 0 0 2 9 L 2 21 A 2 2 0 0 0 2.0410156 21.402344 A 2 2 0 0 0 2.1582031 21.777344 A 2 2 0 0 0 2.1582031 21.779297 A 2 2 0 0 0 2.3378906 22.111328 C 2.3397021 22.114028 2.3419257 22.11645 2.34375 22.119141 A 2 2 0 0 0 2.5761719 22.400391 C 2.5820134 22.40633 2.5858822 22.414055 2.5917969 22.419922 A 2 2 0 0 0 2.8730469 22.650391 C 2.8784167 22.65407 2.8832646 22.658481 2.8886719 22.662109 A 2 2 0 0 0 3.2050781 22.832031 C 3.2155766 22.836605 3.2257373 22.841305 3.2363281 22.845703 A 2 2 0 0 0 3.5761719 22.951172 C 3.5893675 22.954039 3.6019438 22.958333 3.6152344 22.960938 A 2 2 0 0 0 4 23 L 19 23 C 19 23 18 22 18 21 L 6 21 A 2 2 0 0 0 4 19 L 4 11 A 2 2 0 0 0 6 9 L 24 9 A 2 2 0 0 0 26 11 L 26.001953 16 L 28 16 L 28 9 A 2 2 0 0 0 27.958984 8.5976562 A 2 2 0 0 0 27.841797 8.2226562 C 27.841571 8.2221242 27.842023 8.221235 27.841797 8.2207031 A 2 2 0 0 0 27.662109 7.8886719 A 2 2 0 0 0 27.658203 7.8828125 C 27.657689 7.8820514 27.656766 7.8816197 27.65625 7.8808594 A 2 2 0 0 0 27.423828 7.5996094 A 2 2 0 0 0 27.414062 7.5859375 C 27.41212 7.583995 27.410154 7.5820127 27.408203 7.5800781 A 2 2 0 0 0 27.126953 7.3496094 A 2 2 0 0 0 27.117188 7.3417969 C 27.115256 7.3404908 27.113265 7.3391901 27.111328 7.3378906 A 2 2 0 0 0 26.794922 7.1679688 C 26.784423 7.1633947 26.774263 7.1586949 26.763672 7.1542969 A 2 2 0 0 0 26.423828 7.0488281 C 26.410633 7.0459609 26.398056 7.0416671 26.384766 7.0390625 A 2 2 0 0 0 26 7 L 4 7 z M 15 11 C 12.791 11 11 13.015 11 15.5 C 11 16.922 11.597672 18.175 12.513672 19 L 17.486328 19 C 18.402328 18.175 19 16.922 19 15.5 C 19 13.015 17.209 11 15 11 z M 7 14 A 1 1 0 0 0 6 15 A 1 1 0 0 0 7 16 A 1 1 0 0 0 8 15 A 1 1 0 0 0 7 14 z M 23 14 A 1 1 0 0 0 22 15 A 1 1 0 0 0 23 16 A 1 1 0 0 0 24 15 A 1 1 0 0 0 23 14 z M 21.484375 17.986328 A 1.0001 1.0001 0 0 0 21.339844 18 L 21 18 A 1.0001 1.0001 0 0 0 20.548828 19.900391 C 20.762263 21.829567 21.644744 23.028483 22.453125 24 C 21.644465 24.971852 20.761874 26.171213 20.548828 28.101562 A 1.0001 1.0001 0 0 0 21 30 L 21.332031 30 A 1.0001 1.0001 0 0 0 21.658203 30 L 28.332031 30 A 1.0001 1.0001 0 0 0 28.658203 30 L 29 30 A 1.0001 1.0001 0 0 0 29.451172 28.099609 C 29.237737 26.170433 28.355256 24.971517 27.546875 24 C 28.355535 23.028148 29.238126 21.828787 29.451172 19.898438 A 1.0001 1.0001 0 0 0 29 18 L 28.654297 18 A 1.0001 1.0001 0 0 0 28.484375 17.986328 A 1.0001 1.0001 0 0 0 28.339844 18 L 21.654297 18 A 1.0001 1.0001 0 0 0 21.484375 17.986328 z M 22.572266 20 L 27.427734 20 C 27.204665 21.578133 26.446907 22.313335 25.554688 23.347656 L 25 23.990234 L 24.445312 23.347656 C 23.553093 22.313335 22.795335 21.578133 22.572266 20 z M 25 24.009766 L 25.554688 24.652344 C 26.446907 25.686665 27.204665 26.421867 27.427734 28 L 26.589844 28 C 26.070426 27.432844 25.458738 27 25 27 C 24.541262 27 23.929574 27.432844 23.410156 28 L 22.572266 28 C 22.795335 26.421867 23.553093 25.686665 24.445312 24.652344 L 25 24.009766 z" fill="#000000"/></svg>
