<?xml version="1.0" encoding="utf-8"?>
<svg xmlns="http://www.w3.org/2000/svg" viewBox="0 0 30 30" fill="#000000"><path d="M 2 3 L 2 13 A 2 2 0 0 0 2.0390625 13.386719 C 2.0411905 13.397311 2.0445769 13.407434 2.046875 13.417969 A 2 2 0 0 0 4 15 L 15 15 A 2 2 0 0 0 15.386719 14.960938 C 15.397311 14.95881 15.407434 14.955423 15.417969 14.953125 A 2 2 0 0 0 17 13 L 19 13 C 20.093063 13 21 12.093063 21 11 L 21 3 L 19 3 L 19 11 L 17 11 L 17 3 L 15 3 L 15 11 A 2 2 0 0 0 13 13 L 6 13 A 2 2 0 0 0 4 11 L 4 3 L 2 3 z M 6 3 L 6 4.4863281 C 6.736 5.4023281 7.855 6 9.125 6 C 10.995 6 12.552 4.722 13 3 L 6 3 z M 9 9 A 1 1 0 0 0 8 10 A 1 1 0 0 0 9 11 A 1 1 0 0 0 10 10 A 1 1 0 0 0 9 9 z M 22 15 A 3 3 0 0 0 20.738281 15.28125 L 20.728516 15.28125 L 12.035156 19.072266 L 12.035156 19.076172 A 1.5 1.5 0 0 0 11 20.5 A 1.5 1.5 0 0 0 12.5 22 L 11 22 L 4.1367188 19.142578 L 4.1367188 19.144531 A 1.5 1.5 0 0 0 3.5 19 A 1.5 1.5 0 0 0 2 20.5 A 1.5 1.5 0 0 0 2.78125 21.816406 L 11.755859 26.802734 C 11.755915 26.802762 11.759689 26.802706 11.759766 26.802734 A 1.5 1.5 0 0 0 12.5 27 A 1.5 1.5 0 0 0 13.146484 26.851562 C 13.146506 26.851563 13.150391 26.851562 13.150391 26.851562 L 22.214844 23.148438 C 22.717844 22.942438 23.281297 22.950016 23.779297 23.166016 L 28 25 L 28 17 L 23.113281 15.214844 L 23.109375 15.214844 A 3 3 0 0 0 22 15 z" fill="#000000"/></svg>
